<svg xmlns="http://www.w3.org/2000/svg" width="60" height="59.999" viewBox="0 0 60 59.999">
  <g id="Grupo_13195" data-name="Grupo 13195" transform="translate(-115.367 -263.701)">
    <g id="Grupo_13221" data-name="Grupo 13221">
      <g id="Grupo_13189" data-name="Grupo 13189" transform="translate(125.424 264.609)">
        <g id="Grupo_13188" data-name="Grupo 13188">
          <ellipse id="Elipse_78" data-name="Elipse 78" cx="19.943" cy="19.787" rx="19.943" ry="19.787" fill="#ffbecf"/>
        </g>
      </g>
      <g id="Grupo_13193" data-name="Grupo 13193" transform="translate(142.082 317.221)">
        <g id="Grupo_13192" data-name="Grupo 13192">
          <rect id="Ret창ngulo_11169" data-name="Ret창ngulo 11169" width="6.222" height="4.219" fill="#ffbecf"/>
        </g>
      </g>
    </g>
    <g id="Grupo_13191" data-name="Grupo 13191" transform="translate(136.424 305.616)">
      <g id="Grupo_13190" data-name="Grupo 13190">
        <rect id="Ret창ngulo_11168" data-name="Ret창ngulo 11168" width="17.887" height="10.739" fill="#fff"/>
      </g>
    </g>
    <g id="Grupo_13194" data-name="Grupo 13194" transform="translate(115.367 263.701)">
      <path id="Caminho_3220" data-name="Caminho 3220" d="M143.325,263.7c-12.319,0-22.342,9.593-22.342,21.386a20.81,20.81,0,0,0,6.117,14.7,1.286,1.286,0,0,0,1.827-1.81,18.258,18.258,0,0,1-5.373-12.892c0-10.375,8.869-18.814,19.77-18.814s19.771,8.44,19.771,18.814a18.239,18.239,0,0,1-5.913,13.418,1.271,1.271,0,0,0-.408.893,1.287,1.287,0,0,0,2.164.985,20.79,20.79,0,0,0,6.728-15.3C165.668,273.294,155.645,263.7,143.325,263.7Z" transform="translate(-113.325 -263.701)" fill="#ef426f"/>
      <path id="Caminho_3221" data-name="Caminho 3221" d="M135.924,285.075a1.261,1.261,0,0,0,1.15-.626l2.116-4.231a.628.628,0,0,1,1.124,0l2.116,4.231a1.286,1.286,0,0,0,2.3,0l3.829-7.657a1.286,1.286,0,0,0-2.3-1.151l-2.116,4.233a.629.629,0,0,1-1.124,0l-2.116-4.231a1.369,1.369,0,0,0-2.3,0l-2.116,4.233a.63.63,0,0,1-1.125,0l-2.115-4.231a1.286,1.286,0,1,0-2.3,1.15l3.829,7.657A1.263,1.263,0,0,0,135.924,285.075Z" transform="translate(-109.752 -259.617)" fill="#ef426f"/>
      <path id="Caminho_3222" data-name="Caminho 3222" d="M151.12,299.89a4.162,4.162,0,0,0-4.158-4.158h-.956a.628.628,0,0,1-.629-.627v-7.658a1.286,1.286,0,1,0-2.572,0v7.658a.629.629,0,0,1-.629.627h-3.829a.627.627,0,0,1-.627-.627v-7.658a1.286,1.286,0,1,0-2.572,0v7.658a.629.629,0,0,1-.629.627h-.957a4.163,4.163,0,0,0-4.158,4.158,4.112,4.112,0,0,0,.854,2.493.626.626,0,0,1,0,.758,4.111,4.111,0,0,0-.854,2.491,4.162,4.162,0,0,0,4.158,4.158h.957a.629.629,0,0,1,.629.629,5.114,5.114,0,0,0,10.229,0,.628.628,0,0,1,.629-.629h.956a4.161,4.161,0,0,0,4.158-4.158,4.1,4.1,0,0,0-.854-2.491.63.63,0,0,1,0-.758A4.1,4.1,0,0,0,151.12,299.89Zm-10.857,13.07a2.544,2.544,0,0,1-2.542-2.542.628.628,0,0,1,.627-.629h3.829a.629.629,0,0,1,.629.629A2.546,2.546,0,0,1,140.262,312.961Zm6.7-5.742h-13.4a1.585,1.585,0,1,1,0-3.17h13.4a1.585,1.585,0,1,1,0,3.17Zm0-5.744h-13.4a1.585,1.585,0,1,1,0-3.17h13.4a1.585,1.585,0,1,1,0,3.17Z" transform="translate(-110.262 -255.534)" fill="#ef426f"/>
      <path id="Caminho_3223" data-name="Caminho 3223" d="M155.959,270.1a1.28,1.28,0,0,0,.91-.378L160.7,265.9a1.286,1.286,0,0,0-1.819-1.818l-3.828,3.829a1.287,1.287,0,0,0,.908,2.2Z" transform="translate(-101.074 -263.701)" fill="#ef426f"/>
      <path id="Caminho_3224" data-name="Caminho 3224" d="M117.562,264.077a1.285,1.285,0,1,0-1.818,1.818l3.828,3.829a1.286,1.286,0,1,0,1.819-1.818Z" transform="translate(-115.367 -263.701)" fill="#ef426f"/>
      <path id="Caminho_3225" data-name="Caminho 3225" d="M120.482,290.372a1.279,1.279,0,0,0-.91.378l-3.828,3.829a1.285,1.285,0,0,0,1.818,1.818l3.829-3.829a1.287,1.287,0,0,0-.91-2.2Z" transform="translate(-115.367 -254.002)" fill="#ef426f"/>
      <path id="Caminho_3226" data-name="Caminho 3226" d="M156.868,290.75a1.285,1.285,0,1,0-1.818,1.818l3.828,3.829a1.286,1.286,0,1,0,1.819-1.818Z" transform="translate(-101.074 -254.002)" fill="#ef426f"/>
    </g>
  </g>
</svg>
