<svg xmlns="http://www.w3.org/2000/svg" width="44.686" height="60" viewBox="0 0 44.686 60">
  <g id="Grupo_13321" data-name="Grupo 13321" transform="translate(-147.115 -174.165)">
    <g id="Grupo_13308" data-name="Grupo 13308" transform="translate(149.687 176.712)">
      <g id="Grupo_13307" data-name="Grupo 13307">
        <path id="Caminho_3249" data-name="Caminho 3249" d="M165.125,177.016a5.89,5.89,0,0,0-2.24-.963l-.061,0a.631.631,0,0,0-.248.064c-.391.192-.734.74-1.465,2.348a8.079,8.079,0,0,1-2.1,3.195,7.673,7.673,0,0,1-3.615,1.132c-1.759.25-2.339.431-2.6.814s-.258,1.061.059,2.887a8.632,8.632,0,0,1,.089,3.908,7.892,7.892,0,0,1-2.224,3.029c-1.16,1.154-1.711,1.805-1.711,2.393s.551,1.244,1.71,2.4a7.909,7.909,0,0,1,2.225,3.027,8.626,8.626,0,0,1-.089,3.907c-.316,1.825-.33,2.5-.056,2.89s.871.571,2.6.811a7.674,7.674,0,0,1,3.616,1.137,8.061,8.061,0,0,1,2.1,3.192c.655,1.432,1.046,2.146,1.511,2.362a.663.663,0,0,0,.153.048.922.922,0,0,0,.166.015,4.463,4.463,0,0,0,1.85-.783c.117-.068.228-.132.329-.188a5.684,5.684,0,0,1,7.305,0,8.369,8.369,0,0,0,2.219.957l.05,0a.624.624,0,0,0,.275-.064c.389-.19.731-.738,1.466-2.35a8.05,8.05,0,0,1,2.1-3.192,7.674,7.674,0,0,1,3.618-1.136c1.725-.24,2.332-.43,2.6-.809s.258-1.069-.059-2.892a8.64,8.64,0,0,1-.087-3.905,7.925,7.925,0,0,1,2.223-3.027c1.163-1.155,1.714-1.807,1.714-2.4s-.552-1.241-1.711-2.393a7.9,7.9,0,0,1-2.224-3.027,8.642,8.642,0,0,1,.086-3.905c.316-1.826.331-2.5.061-2.891s-.844-.565-2.575-.81a7.732,7.732,0,0,1-3.644-1.136,8.055,8.055,0,0,1-2.1-3.188c-.66-1.44-1.05-2.153-1.512-2.369l-.037-.015a.866.866,0,0,0-.318-.059,4.275,4.275,0,0,0-1.8.777c-.127.075-.245.145-.352.2a5.682,5.682,0,0,1-7.3,0Z" transform="translate(-149.001 -176.033)" fill="#73d7ff"/>
      </g>
    </g>
    <g id="Grupo_13310" data-name="Grupo 13310" transform="translate(154.158 181.206)">
      <g id="Grupo_13309" data-name="Grupo 13309" transform="translate(0 0)">
        <circle id="Elipse_80" data-name="Elipse 80" cx="10.819" cy="10.819" r="10.819" transform="translate(0 15.3) rotate(-45)" fill="#fff"/>
      </g>
    </g>
    <g id="Grupo_13312" data-name="Grupo 13312" transform="translate(170.093 212.185)">
      <g id="Grupo_13311" data-name="Grupo 13311">
        <path id="Caminho_3250" data-name="Caminho 3250" d="M170.008,217.958l-6.043-12.348,5.457,1.4,6.527-4.964,5.114,14.3-6.264.575-2.77,3.537-1.768-1.147Z" transform="translate(-163.965 -202.046)" fill="#fff"/>
      </g>
    </g>
    <g id="Grupo_13314" data-name="Grupo 13314" transform="translate(150.266 212.185)">
      <g id="Grupo_13313" data-name="Grupo 13313">
        <path id="Caminho_3251" data-name="Caminho 3251" d="M167.835,208.09l-6.648,13.068-4.886-5.114-6.875.8,8.374-14.794,3.956,5.533,4.962-1.427Z" transform="translate(-149.425 -202.046)" fill="#fff"/>
      </g>
    </g>
    <g id="Grupo_13320" data-name="Grupo 13320" transform="translate(147.115 174.165)">
      <g id="Grupo_13317" data-name="Grupo 13317" transform="translate(9.571 9.569)">
        <g id="Grupo_13316" data-name="Grupo 13316">
          <g id="Grupo_13315" data-name="Grupo 13315">
            <path id="Caminho_3252" data-name="Caminho 3252" d="M166.906,206.727a12.772,12.772,0,1,1,12.772-12.773A12.787,12.787,0,0,1,166.906,206.727Zm0-22.972a10.2,10.2,0,1,0,10.2,10.2A10.211,10.211,0,0,0,166.906,183.755Z" transform="translate(-154.134 -181.182)" fill="#363d87"/>
          </g>
        </g>
      </g>
      <g id="Grupo_13319" data-name="Grupo 13319">
        <g id="Grupo_13318" data-name="Grupo 13318">
          <path id="Caminho_3253" data-name="Caminho 3253" d="M182.936,212.952a.629.629,0,0,1,.475-.9c1.665-.237,3.235-.558,4.14-1.857.959-1.377.656-3.117.364-4.8a6.892,6.892,0,0,1-.166-2.7,6.211,6.211,0,0,1,1.582-1.966c1.159-1.152,2.471-2.456,2.471-4.222s-1.31-3.065-2.471-4.218a6.222,6.222,0,0,1-1.579-1.965,6.827,6.827,0,0,1,.164-2.707c.292-1.681.595-3.421-.364-4.8-.985-1.417-2.774-1.669-4.353-1.89a5.918,5.918,0,0,1-2.418-.634,6.415,6.415,0,0,1-1.32-2.216c-.719-1.575-1.463-3.2-3.078-3.753a3.157,3.157,0,0,0-1-.161,7.742,7.742,0,0,0-3.537,1.287,6.05,6.05,0,0,1-2.388,1,6.082,6.082,0,0,1-2.389-1,7.7,7.7,0,0,0-3.539-1.285,3.1,3.1,0,0,0-.994.158c-1.619.55-2.362,2.179-3.089,3.77a6.4,6.4,0,0,1-1.312,2.2,5.922,5.922,0,0,1-2.416.631c-1.58.222-3.37.475-4.355,1.89-.957,1.379-.655,3.116-.36,4.818a6.734,6.734,0,0,1,.161,2.686,6.2,6.2,0,0,1-1.582,1.969c-1.158,1.15-2.468,2.452-2.468,4.215s1.313,3.068,2.482,4.23a6.229,6.229,0,0,1,1.57,1.957,6.821,6.821,0,0,1-.165,2.7c-.292,1.681-.595,3.419.361,4.8.907,1.3,2.478,1.623,4.143,1.86a.629.629,0,0,1,.475.9l-6.9,14a1.291,1.291,0,0,0,1.143,1.859,1.191,1.191,0,0,0,.243-.025l6.4-1.169a.636.636,0,0,1,.113-.01.628.628,0,0,1,.545.315l3.209,5.6a1.28,1.28,0,0,0,1.114.646h.035a1.289,1.289,0,0,0,1.115-.713l7.928-15.976a.579.579,0,0,1,.1-.079.624.624,0,0,1,.565.025l.278.155a7.567,7.567,0,0,0,3.492,1.276,3.064,3.064,0,0,0,1.012-.168c1.613-.547,2.356-2.172,3.079-3.75.067-.146.14-.307.215-.466a.632.632,0,0,1,.563-.361h0a.631.631,0,0,1,.566.35l5.032,10.215a.627.627,0,0,1-.563.905.787.787,0,0,1-.113-.01l-4-.73a1.25,1.25,0,0,0-1.336.627l-2.095,3.653a.626.626,0,0,1-.545.315h-.019a.628.628,0,0,1-.544-.349l-2.187-4.433a1.285,1.285,0,1,0-2.3,1.137l3.776,7.658a1.278,1.278,0,0,0,1.092.717h.06a1.284,1.284,0,0,0,1.114-.646l3.209-5.6a.628.628,0,0,1,.545-.315.646.646,0,0,1,.113.01l6.408,1.17a1.22,1.22,0,0,0,.243.023h0a1.253,1.253,0,0,0,1.006-.514,1.28,1.28,0,0,0,.13-1.345Zm-15.445,5.68-5.2,10.466a.622.622,0,0,1-.543.348h-.019a.627.627,0,0,1-.545-.316l-2.1-3.665a1.277,1.277,0,0,0-1.1-.649,1.291,1.291,0,0,0-.244.025l-3.99.728a.768.768,0,0,1-.112.01.628.628,0,0,1-.565-.905l5.036-10.215a.626.626,0,0,1,.563-.35h.005a.63.63,0,0,1,.563.361c.075.158.149.319.215.466.719,1.574,1.462,3.2,3.078,3.751a3.125,3.125,0,0,0,1,.164,6.7,6.7,0,0,0,3.09-1.049.629.629,0,0,1,.866.83Zm11.731-7.96a8.05,8.05,0,0,0-2.1,3.192c-.735,1.612-1.077,2.16-1.466,2.35a.624.624,0,0,1-.275.064l-.05,0a8.37,8.37,0,0,1-2.219-.957,5.684,5.684,0,0,0-7.305,0c-.1.056-.211.12-.329.188a4.463,4.463,0,0,1-1.85.783.922.922,0,0,1-.166-.015.664.664,0,0,1-.153-.048c-.465-.215-.856-.93-1.511-2.362a8.061,8.061,0,0,0-2.1-3.192,7.674,7.674,0,0,0-3.616-1.137c-1.729-.24-2.337-.431-2.6-.811s-.26-1.065.056-2.89a8.627,8.627,0,0,0,.089-3.907A7.908,7.908,0,0,0,151.4,198.9c-1.159-1.152-1.71-1.8-1.71-2.4s.551-1.24,1.711-2.393a7.892,7.892,0,0,0,2.224-3.029,8.633,8.633,0,0,0-.089-3.908c-.316-1.826-.33-2.5-.059-2.887s.844-.565,2.6-.814a7.673,7.673,0,0,0,3.615-1.132,8.079,8.079,0,0,0,2.1-3.2c.731-1.608,1.073-2.156,1.465-2.348a.632.632,0,0,1,.248-.064l.061,0a5.891,5.891,0,0,1,2.24.963,5.682,5.682,0,0,0,7.3,0c.106-.06.225-.13.352-.2a4.275,4.275,0,0,1,1.8-.777.866.866,0,0,1,.318.059l.037.015c.462.215.852.929,1.512,2.369a8.055,8.055,0,0,0,2.1,3.188,7.732,7.732,0,0,0,3.644,1.136c1.73.245,2.307.427,2.575.81s.255,1.065-.061,2.891a8.642,8.642,0,0,0-.086,3.905,7.9,7.9,0,0,0,2.224,3.027c1.159,1.152,1.711,1.8,1.711,2.393s-.551,1.242-1.714,2.4a7.925,7.925,0,0,0-2.223,3.027,8.639,8.639,0,0,0,.087,3.905c.316,1.823.331,2.5.059,2.892-.266.379-.873.569-2.6.809A7.674,7.674,0,0,0,179.223,210.672Z" transform="translate(-147.115 -174.165)" fill="#363d87"/>
        </g>
      </g>
    </g>
  </g>
</svg>
