<svg xmlns="http://www.w3.org/2000/svg" width="60" height="60" viewBox="0 0 60 60">
  <g id="Grupo_13305" data-name="Grupo 13305" transform="translate(-287.5 -100.677)">
    <g id="Grupo_13306" data-name="Grupo 13306">
      <rect id="Retângulo_11217" data-name="Retângulo 11217" width="15.682" height="30.324" transform="translate(288.421 128.764)" fill="#73d7ff"/>
      <g id="Grupo_13284" data-name="Grupo 13284" transform="translate(331.29 128.764)">
        <rect id="Retângulo_11218" data-name="Retângulo 11218" width="15.682" height="30.324" fill="#73d7ff"/>
      </g>
      <g id="Grupo_13286" data-name="Grupo 13286" transform="translate(317.534 102.07)">
        <rect id="Retângulo_11220" data-name="Retângulo 11220" width="14.652" height="11.818" fill="#73d7ff"/>
      </g>
    </g>
    <g id="Grupo_13285" data-name="Grupo 13285" transform="translate(303.288 120.735)">
      <rect id="Retângulo_11219" data-name="Retângulo 11219" width="28.493" height="38.352" fill="#fff"/>
    </g>
    <g id="Grupo_13304" data-name="Grupo 13304" transform="translate(287.5 100.677)">
      <g id="Grupo_13287" data-name="Grupo 13287">
        <path id="Caminho_3248" data-name="Caminho 3248" d="M346.214,127.477h-13.4a.627.627,0,0,1-.627-.627v-5.744a1.288,1.288,0,0,0-1.286-1.286H319.415a.628.628,0,0,1-.629-.627v-3.829a.628.628,0,0,1,.629-.629h15.314a1.286,1.286,0,0,0,1.07-2l-3.12-4.681a.629.629,0,0,1,0-.7l3.12-4.68a1.286,1.286,0,0,0-1.07-2H317.5a1.287,1.287,0,0,0-1.286,1.286v17.23a.628.628,0,0,1-.629.627H304.1a1.288,1.288,0,0,0-1.286,1.286v5.744a.627.627,0,0,1-.627.627h-13.4a1.287,1.287,0,0,0-1.286,1.286v30.629a1.287,1.287,0,0,0,1.286,1.286h57.428a1.287,1.287,0,0,0,1.286-1.286V128.762A1.287,1.287,0,0,0,346.214,127.477Zm-27.428-23.6a.629.629,0,0,1,.629-.629h11.738a.629.629,0,0,1,.522.978l-1.845,2.765a1.283,1.283,0,0,0,0,1.428l1.845,2.767a.628.628,0,0,1-.522.976H319.415a.628.628,0,0,1-.629-.629Zm-15.972,53.6a.628.628,0,0,1-.627.629H290.7a.628.628,0,0,1-.629-.629v-26.8a.628.628,0,0,1,.629-.627h11.486a.627.627,0,0,1,.627.627Zm26.8,0a.628.628,0,0,1-.627.629h-1.914a.629.629,0,0,1-.629-.629v-5.742a1.286,1.286,0,1,0-2.572,0v5.742a.628.628,0,0,1-.629.629H311.758a.628.628,0,0,1-.629-.629v-5.742a1.286,1.286,0,1,0-2.572,0v5.742a.629.629,0,0,1-.629.629h-1.915a.629.629,0,0,1-.629-.629V123.02a.63.63,0,0,1,.629-.629h22.972a.629.629,0,0,1,.627.629Zm15.315,0a.628.628,0,0,1-.629.629H332.814a.628.628,0,0,1-.627-.629v-26.8a.627.627,0,0,1,.627-.627H344.3a.628.628,0,0,1,.629.627Z" transform="translate(-287.5 -100.677)" fill="#363d87"/>
      </g>
      <g id="Grupo_13288" data-name="Grupo 13288" transform="translate(21.057 34.458)">
        <rect id="Retângulo_11221" data-name="Retângulo 11221" width="2.572" height="2.572" fill="#363d87"/>
      </g>
      <g id="Grupo_13289" data-name="Grupo 13289" transform="translate(7.657 34.458)">
        <rect id="Retângulo_11222" data-name="Retângulo 11222" width="2.572" height="2.572" fill="#363d87"/>
      </g>
      <g id="Grupo_13290" data-name="Grupo 13290" transform="translate(7.657 42.115)">
        <rect id="Retângulo_11223" data-name="Retângulo 11223" width="2.572" height="2.572" fill="#363d87"/>
      </g>
      <g id="Grupo_13291" data-name="Grupo 13291" transform="translate(7.657 49.772)">
        <rect id="Retângulo_11224" data-name="Retângulo 11224" width="2.572" height="2.572" fill="#363d87"/>
      </g>
      <g id="Grupo_13292" data-name="Grupo 13292" transform="translate(49.771 34.458)">
        <rect id="Retângulo_11225" data-name="Retângulo 11225" width="2.572" height="2.572" fill="#363d87"/>
      </g>
      <g id="Grupo_13293" data-name="Grupo 13293" transform="translate(49.771 42.115)">
        <rect id="Retângulo_11226" data-name="Retângulo 11226" width="2.572" height="2.572" fill="#363d87"/>
      </g>
      <g id="Grupo_13294" data-name="Grupo 13294" transform="translate(49.771 49.772)">
        <rect id="Retângulo_11227" data-name="Retângulo 11227" width="2.572" height="2.572" fill="#363d87"/>
      </g>
      <g id="Grupo_13295" data-name="Grupo 13295" transform="translate(28.714 34.458)">
        <rect id="Retângulo_11228" data-name="Retângulo 11228" width="2.572" height="2.572" fill="#363d87"/>
      </g>
      <g id="Grupo_13296" data-name="Grupo 13296" transform="translate(36.371 34.458)">
        <rect id="Retângulo_11229" data-name="Retângulo 11229" width="2.572" height="2.572" fill="#363d87"/>
      </g>
      <g id="Grupo_13297" data-name="Grupo 13297" transform="translate(21.057 42.115)">
        <rect id="Retângulo_11230" data-name="Retângulo 11230" width="2.572" height="2.572" fill="#363d87"/>
      </g>
      <g id="Grupo_13298" data-name="Grupo 13298" transform="translate(28.714 42.115)">
        <rect id="Retângulo_11231" data-name="Retângulo 11231" width="2.572" height="2.572" fill="#363d87"/>
      </g>
      <g id="Grupo_13299" data-name="Grupo 13299" transform="translate(28.714 49.772)">
        <rect id="Retângulo_11232" data-name="Retângulo 11232" width="2.572" height="2.572" fill="#363d87"/>
      </g>
      <g id="Grupo_13300" data-name="Grupo 13300" transform="translate(36.371 42.115)">
        <rect id="Retângulo_11233" data-name="Retângulo 11233" width="2.572" height="2.572" fill="#363d87"/>
      </g>
      <g id="Grupo_13301" data-name="Grupo 13301" transform="translate(21.057 26.801)">
        <rect id="Retângulo_11234" data-name="Retângulo 11234" width="2.572" height="2.572" fill="#363d87"/>
      </g>
      <g id="Grupo_13302" data-name="Grupo 13302" transform="translate(28.714 26.801)">
        <rect id="Retângulo_11235" data-name="Retângulo 11235" width="2.572" height="2.572" fill="#363d87"/>
      </g>
      <g id="Grupo_13303" data-name="Grupo 13303" transform="translate(36.371 26.801)">
        <rect id="Retângulo_11236" data-name="Retângulo 11236" width="2.572" height="2.572" fill="#363d87"/>
      </g>
    </g>
  </g>
</svg>
