<svg xmlns="http://www.w3.org/2000/svg" width="60" height="60" viewBox="0 0 60 60">
  <g id="Grupo_13187" data-name="Grupo 13187" transform="translate(-115.367 -337.188)">
    <path id="Retângulo_11167" data-name="Retângulo 11167" d="M1.485,0H53.371a1.485,1.485,0,0,1,1.485,1.485v40.4a1.485,1.485,0,0,1-1.485,1.485H1.484A1.484,1.484,0,0,1,0,41.886V1.485A1.485,1.485,0,0,1,1.485,0Z" transform="translate(117.94 339.761)" fill="#ffbecf"/>
    <path id="Caminho_3210" data-name="Caminho 3210" d="M142.979,362.1l16.577,3.963-3.324,3.75,7.628,7.926-5.327,5.327-8.523-6.989-3.324,3.324Z" transform="translate(10.041 9.06)" fill="#fff"/>
    <g id="Grupo_13186" data-name="Grupo 13186" transform="translate(115.367 337.188)">
      <path id="Caminho_3211" data-name="Caminho 3211" d="M158.988,370.44a.629.629,0,0,1,0-.889l2.475-2.475a1.286,1.286,0,0,0-.63-2.165l-17.224-3.828a1.379,1.379,0,0,0-.28-.029,1.284,1.284,0,0,0-1.26,1.564l3.829,17.227a1.283,1.283,0,0,0,.9.957,1.222,1.222,0,0,0,.352.052,1.311,1.311,0,0,0,.912-.378L150.539,378a.627.627,0,0,1,.888,0l6.3,6.3a1.282,1.282,0,0,0,1.818,0l5.744-5.742a1.29,1.29,0,0,0,0-1.819Zm3.132,7.657-3.037,3.035a.627.627,0,0,1-.888,0l-6.3-6.3a1.282,1.282,0,0,0-1.818,0l-1.364,1.362a.623.623,0,0,1-.443.184.6.6,0,0,1-.176-.026.623.623,0,0,1-.438-.466L145.234,365a.629.629,0,0,1,.614-.765.652.652,0,0,1,.135.015l10.889,2.419a.628.628,0,0,1,.307,1.058l-1.362,1.362a1.29,1.29,0,0,0,0,1.819l6.3,6.3A.629.629,0,0,1,162.12,378.1Z" transform="translate(-105.668 -328.509)" fill="#ef426f"/>
      <path id="Caminho_3212" data-name="Caminho 3212" d="M170.77,337.188H119.964a4.6,4.6,0,0,0-4.6,4.6v39.32a4.6,4.6,0,0,0,4.6,4.6H135.8a.629.629,0,0,1,.629.629c0,5.457-1.885,7.519-2.695,8.152a.623.623,0,0,1-.386.134h-5.2a1.286,1.286,0,1,0,0,2.572H162.6a1.286,1.286,0,0,0,0-2.572h-24.5a.627.627,0,0,1-.562-.91A16.506,16.506,0,0,0,139,386.331a.629.629,0,0,1,.629-.629H149.2a1.286,1.286,0,0,0,0-2.572H119.964a2.027,2.027,0,0,1-2.025-2.025v-39.32a2.027,2.027,0,0,1,2.025-2.024H170.77a2.027,2.027,0,0,1,2.025,2.024v29.232a1.286,1.286,0,0,0,2.572,0V341.785A4.6,4.6,0,0,0,170.77,337.188Z" transform="translate(-115.367 -337.188)" fill="#ef426f"/>
      <path id="Caminho_3213" data-name="Caminho 3213" d="M126.548,352.611a1.01,1.01,0,0,1,.124.089.719.719,0,0,1,.091.093l.045.019c.041.019.08.037.119.056l.1.056.027.018a1.329,1.329,0,0,0,.43.091h.026a1.3,1.3,0,0,0,.5-.116l.041-.03c.038-.029.079-.059.121-.085s.087-.053.132-.079c.026-.014.057-.033.08-.048a.987.987,0,0,1,.082-.113.688.688,0,0,1,.115-.109l5.7-7.594a1.285,1.285,0,0,0-2.058-1.541L127.8,349.21a.63.63,0,0,1-.458.25h-.045a.624.624,0,0,1-.443-.184l-2.269-2.269a1.286,1.286,0,1,0-1.819,1.819Z" transform="translate(-112.814 -335.146)" fill="#ef426f"/>
      <path id="Caminho_3214" data-name="Caminho 3214" d="M122.762,357.25l3.785,3.784a.781.781,0,0,1,.124.089.717.717,0,0,1,.091.093l.045.019c.041.018.08.037.119.056s.068.037.1.056l.027.016a1.261,1.261,0,0,0,.43.091h.026a1.254,1.254,0,0,0,.5-.116c.014-.008.027-.019.041-.029.038-.03.079-.059.121-.086s.087-.053.132-.078c.026-.014.057-.033.08-.048a.876.876,0,0,1,.082-.113.688.688,0,0,1,.115-.109l5.7-7.594a1.285,1.285,0,0,0-2.058-1.541l-4.418,5.891a.632.632,0,0,1-.458.251h-.045a.63.63,0,0,1-.443-.184l-2.269-2.269a1.286,1.286,0,1,0-1.819,1.819Z" transform="translate(-112.814 -332.083)" fill="#ef426f"/>
      <path id="Caminho_3215" data-name="Caminho 3215" d="M141.931,356.724a1.288,1.288,0,0,0-1.286-1.287H134.9a1.287,1.287,0,0,0,0,2.573h5.742A1.287,1.287,0,0,0,141.931,356.724Z" transform="translate(-108.731 -330.552)" fill="#ef426f"/>
      <path id="Caminho_3216" data-name="Caminho 3216" d="M142.039,356.724a1.287,1.287,0,0,0,1.286,1.286h11.486a1.287,1.287,0,0,0,0-2.573H143.325A1.288,1.288,0,0,0,142.039,356.724Z" transform="translate(-105.668 -330.552)" fill="#ef426f"/>
      <path id="Caminho_3217" data-name="Caminho 3217" d="M147.673,348.3a1.287,1.287,0,0,0-1.286-1.286H134.9a1.286,1.286,0,1,0,0,2.572h11.485A1.287,1.287,0,0,0,147.673,348.3Z" transform="translate(-108.731 -333.615)" fill="#ef426f"/>
      <path id="Caminho_3218" data-name="Caminho 3218" d="M153.279,349.587a1.286,1.286,0,1,0,0-2.572h-5.742a1.286,1.286,0,1,0,0,2.572Z" transform="translate(-104.136 -333.615)" fill="#ef426f"/>
      <path id="Caminho_3219" data-name="Caminho 3219" d="M123.672,365.029h19.143a1.287,1.287,0,0,0,0-2.573H123.672a1.287,1.287,0,0,0,0,2.573Z" transform="translate(-112.815 -328)" fill="#ef426f"/>
    </g>
  </g>
</svg>
