<svg xmlns="http://www.w3.org/2000/svg" width="46.599" height="60" viewBox="0 0 46.599 60">
  <g id="Grupo_13372" data-name="Grupo 13372" transform="translate(-219.414 -100.677)">
    <g id="Grupo_13373" data-name="Grupo 13373">
      <g id="Grupo_13354" data-name="Grupo 13354" transform="translate(220.566 151.907)">
        <g id="Grupo_13353" data-name="Grupo 13353">
          <rect id="Ret창ngulo_11249" data-name="Ret창ngulo 11249" width="41.989" height="7.443" fill="#ffbecf"/>
        </g>
      </g>
      <g id="Grupo_13358" data-name="Grupo 13358" transform="translate(236.326 115.565)">
        <g id="Grupo_13357" data-name="Grupo 13357">
          <path id="Caminho_3254" data-name="Caminho 3254" d="M246.489,117.326l-9.158,9.158-5.515-5.515,9.375-9.375Z" transform="translate(-231.816 -111.595)" fill="#ffbecf"/>
        </g>
      </g>
      <g id="Grupo_13360" data-name="Grupo 13360" transform="translate(249.499 102.391)">
        <g id="Grupo_13359" data-name="Grupo 13359">
          <path id="Caminho_3255" data-name="Caminho 3255" d="M256.149,107.666l-9.158,9.158-5.515-5.515,9.375-9.375Z" transform="translate(-241.477 -101.934)" fill="#ffbecf"/>
        </g>
      </g>
    </g>
    <g id="Grupo_13356" data-name="Grupo 13356" transform="translate(244.373 142.986)">
      <g id="Grupo_13355" data-name="Grupo 13355">
        <rect id="Ret창ngulo_11250" data-name="Ret창ngulo 11250" width="10.341" height="9.432" fill="#fff"/>
      </g>
    </g>
    <g id="Grupo_13362" data-name="Grupo 13362" transform="translate(230.701 126.197)">
      <g id="Grupo_13361" data-name="Grupo 13361">
        <path id="Caminho_3256" data-name="Caminho 3256" d="M232.783,119.391l-5.092,5.092,4.687,4.688,5.273-5.273Z" transform="translate(-227.691 -119.391)" fill="#fff"/>
      </g>
    </g>
    <g id="Grupo_13364" data-name="Grupo 13364" transform="translate(246.857 108.978)">
      <g id="Grupo_13363" data-name="Grupo 13363">
        <circle id="Elipse_81" data-name="Elipse 81" cx="5.428" cy="5.428" r="5.428" fill="#fff"/>
      </g>
    </g>
    <g id="Grupo_13371" data-name="Grupo 13371" transform="translate(219.414 100.677)">
      <g id="Grupo_13367" data-name="Grupo 13367">
        <g id="Grupo_13366" data-name="Grupo 13366">
          <g id="Grupo_13365" data-name="Grupo 13365">
            <path id="Caminho_3257" data-name="Caminho 3257" d="M259.27,115.177a.632.632,0,0,1,.18-.375l6.187-6.187a1.288,1.288,0,0,0,0-1.818l-5.744-5.744a1.286,1.286,0,0,0-1.818,0l-6.187,6.187a.624.624,0,0,1-.375.18,7.065,7.065,0,0,0-6.214,6.214.626.626,0,0,1-.181.376l-8.66,8.66a.629.629,0,0,1-.889,0l-.56-.56a1.286,1.286,0,0,0-1.819,1.819l.562.56a.629.629,0,0,1,0,.889l-4.39,4.388a1.284,1.284,0,0,0,0,1.819l5.742,5.742a1.284,1.284,0,0,0,1.819,0l4.39-4.388a.627.627,0,0,1,.888,0l.56.56a1.286,1.286,0,0,0,1.819-1.819l-.56-.56a.629.629,0,0,1,0-.889l8.66-8.66a.624.624,0,0,1,.376-.18,7.026,7.026,0,0,0,4.362-2.193.629.629,0,0,1,.46-.2h.034a.622.622,0,0,1,.469.252,15.945,15.945,0,0,1-3.942,22.769,1.1,1.1,0,0,0-.15.121.63.63,0,0,1-.791.048,6.967,6.967,0,0,0-4.084-1.315H224.528a1.286,1.286,0,1,0,0,2.572h18.258a.628.628,0,0,1,.544.944,7.019,7.019,0,0,0-.945,3.513v1.915a.628.628,0,0,1-.629.629H220.7a1.287,1.287,0,0,0-1.286,1.286v7.657a1.287,1.287,0,0,0,1.286,1.286h42.113a1.287,1.287,0,0,0,1.286-1.286v-7.657a1.287,1.287,0,0,0-1.286-1.286h-5.742a.628.628,0,0,1-.629-.629v-1.915a6.96,6.96,0,0,0-.685-3.025.627.627,0,0,1,.214-.791,18.515,18.515,0,0,0,3.4-27.683l-.038-.038a.629.629,0,0,1-.161-.559C259.214,115.606,259.247,115.393,259.27,115.177Zm-14.314,32.729a4.457,4.457,0,0,1,8.914,0v1.915a.628.628,0,0,1-.629.629h-7.657a.629.629,0,0,1-.629-.629ZM260.9,153.02a.628.628,0,0,1,.629.629v3.828a.628.628,0,0,1-.629.629H222.613a.628.628,0,0,1-.627-.629v-3.828a.628.628,0,0,1,.627-.629Zm-21.4-21.9-3.035,3.035a.629.629,0,0,1-.889,0l-3.035-3.035a.629.629,0,0,1,0-.889l3.035-3.035a.629.629,0,0,1,.889,0l3.035,3.035A.629.629,0,0,1,239.494,131.122Zm9.556-9.556-6.85,6.85a.627.627,0,0,1-.888,0l-3.037-3.035a.629.629,0,0,1,0-.889l6.85-6.85a.619.619,0,0,1,.439-.168.631.631,0,0,1,.089.005.665.665,0,0,1,.472.311l.031.055c.06.1.121.206.185.307l.068.109c.08.12.162.24.251.357l.025.031c.082.108.166.211.256.316l.074.086a6.935,6.935,0,0,0,.626.625l.086.076c.1.087.207.172.314.252l.035.029c.115.086.234.168.359.25l.1.067c.1.064.2.125.315.188l.056.034a.627.627,0,0,1,.14.994Zm3.235-2.7a4.456,4.456,0,1,1,4.458-4.456A4.461,4.461,0,0,1,252.284,118.862Zm6.716-7.51a.687.687,0,0,1-.091-.007.639.639,0,0,1-.465-.323l-.031-.055q-.088-.155-.184-.307l-.07-.108c-.079-.121-.161-.24-.254-.363l-.022-.027c-.08-.108-.166-.211-.255-.316l-.074-.086a7.316,7.316,0,0,0-.626-.625l-.087-.076c-.1-.087-.207-.172-.312-.252l-.035-.029c-.116-.086-.236-.169-.355-.247l-.11-.071c-.1-.064-.2-.125-.31-.184l-.06-.037a.629.629,0,0,1-.14-.994l3.022-3.02a.627.627,0,0,1,.888,0l3.037,3.035a.627.627,0,0,1,0,.888l-3.022,3.022A.627.627,0,0,1,259,111.353Z" transform="translate(-219.414 -100.677)" fill="#ef426f"/>
          </g>
        </g>
      </g>
      <g id="Grupo_13370" data-name="Grupo 13370" transform="translate(31.585 12.443)">
        <g id="Grupo_13369" data-name="Grupo 13369">
          <g id="Grupo_13368" data-name="Grupo 13368">
            <path id="Caminho_3258" data-name="Caminho 3258" d="M243.862,109.8a1.286,1.286,0,1,0,1.287,1.286A1.286,1.286,0,0,0,243.862,109.8Z" transform="translate(-242.576 -109.802)" fill="#ef426f"/>
          </g>
        </g>
      </g>
    </g>
  </g>
</svg>
