<svg xmlns="http://www.w3.org/2000/svg" width="60" height="60" viewBox="0 0 60 60">
  <g id="Grupo_13141" data-name="Grupo 13141" transform="translate(-188.306 -115.853)">
    <g id="Grupo_13215" data-name="Grupo 13215">
      <g id="Grupo_13135" data-name="Grupo 13135" transform="translate(201.286 139.012)">
        <g id="Grupo_13134" data-name="Grupo 13134">
          <path id="Caminho_3124" data-name="Caminho 3124" d="M229.317,138.4l-5.583-2.55-1.65-3.014H221.8a11.678,11.678,0,0,1-13.84.067c-.026-.022-.078.175-.1.151l-2.066,2.618-7.969,3.58V150.5h34.347v-7.883Z" transform="translate(-197.825 -132.836)" fill="#00bf6f"/>
        </g>
      </g>
      <g id="Grupo_13139" data-name="Grupo 13139" transform="translate(197.352 163.894)">
        <g id="Grupo_13138" data-name="Grupo 13138">
          <rect id="Ret창ngulo_11154" data-name="Ret창ngulo 11154" width="41.932" height="10.454" fill="#00bf6f"/>
        </g>
      </g>
    </g>
    <path id="Caminho_3123" data-name="Caminho 3123" d="M217.089,125.44c0,4.82-2.4,8.727-5.355,8.727s-5.355-3.907-5.355-8.727,2.4-8.726,5.355-8.726S217.089,120.621,217.089,125.44Z" transform="translate(6.572 0.313)" fill="#fff"/>
    <g id="Grupo_13137" data-name="Grupo 13137" transform="translate(190.079 157.956)">
      <g id="Grupo_13136" data-name="Grupo 13136">
        <rect id="Ret창ngulo_11153" data-name="Ret창ngulo 11153" width="56.761" height="4.432" fill="#fff"/>
      </g>
    </g>
    <g id="Grupo_13140" data-name="Grupo 13140" transform="translate(188.306 115.853)">
      <path id="Caminho_3125" data-name="Caminho 3125" d="M212.181,135.653c3.941,0,7.028-4.889,7.028-11.13,0-7.825-4.915-8.67-7.028-8.67s-7.03.845-7.03,8.67C205.151,130.764,208.238,135.653,212.181,135.653Zm0-17.228c1.1,0,4.456,0,4.456,6.1,0,4.559-2.082,8.56-4.456,8.56s-4.456-4-4.456-8.56C207.724,118.425,211.077,118.425,212.181,118.425Z" transform="translate(-182.181 -115.853)" fill="#003575"/>
      <path id="Caminho_3126" data-name="Caminho 3126" d="M247.928,144.563l-3.828-3.829a1.286,1.286,0,1,0-1.819,1.818l3.269,3.269a.631.631,0,0,1,.184.445V149.3a.629.629,0,0,1-.629.629h-7.657a.628.628,0,0,1-.629-.629v-5.742a1.182,1.182,0,0,0-.008-.138,12.624,12.624,0,0,0-1.205-4.574c-1.17-1.827-2.89-2.142-4.556-2.448a7.249,7.249,0,0,1-4.1-2.944,1.29,1.29,0,0,0-1.174-.76,1.262,1.262,0,0,0-.526.115,1.284,1.284,0,0,0-.645,1.7,7.805,7.805,0,0,0,3.169,3.237,8.144,8.144,0,0,0,2.967,1.211c1.48.27,2.156.425,2.7,1.276a11.547,11.547,0,0,1,.806,3.36.638.638,0,0,1,0,.072V149.3a.629.629,0,0,1-.629.629h-3.829a.628.628,0,0,1-.627-.629v-3.828a1.286,1.286,0,1,0-2.572,0V149.3a.629.629,0,0,1-.629.629h-5.744a.628.628,0,0,1-.627-.629v-8.254a1.286,1.286,0,1,0-2.572,0V149.3a.629.629,0,0,1-.629.629h-5.742a.628.628,0,0,1-.629-.629v-3.828a1.286,1.286,0,1,0-2.572,0V149.3a.629.629,0,0,1-.629.629h-4.013a.628.628,0,0,1-.629-.629v-5.636a.626.626,0,0,1,0-.072,11.563,11.563,0,0,1,.8-3.357c.544-.854,1.229-1.009,2.858-1.306a7.954,7.954,0,0,0,2.806-1.185,7.787,7.787,0,0,0,3.17-3.235,1.282,1.282,0,0,0-1.17-1.811,1.3,1.3,0,0,0-1.177.757,5.414,5.414,0,0,1-2.187,2.108,5.483,5.483,0,0,1-2.066.863c-1.515.278-3.232.593-4.4,2.42a12.636,12.636,0,0,0-1.207,4.574c0,.045-.007.091-.007.138V149.3a.628.628,0,0,1-.629.629h-7.471a.628.628,0,0,1-.629-.629v-3.035a.625.625,0,0,1,.184-.445l3.267-3.269a1.285,1.285,0,0,0-1.818-1.818l-3.829,3.829a1.278,1.278,0,0,0-.376.91v11.486a1.287,1.287,0,0,0,1.286,1.285h5.742a.628.628,0,0,1,.629.629v9.571a1.287,1.287,0,0,0,1.286,1.286h42.113a1.288,1.288,0,0,0,1.287-1.286v-9.571a.628.628,0,0,1,.627-.629h5.744a1.287,1.287,0,0,0,1.286-1.285V145.472A1.274,1.274,0,0,0,247.928,144.563Zm-9.852,21.965a.628.628,0,0,1-.627.629H199.163a.628.628,0,0,1-.629-.629v-7.657a.628.628,0,0,1,.629-.629h38.285a.628.628,0,0,1,.627.629Zm7.658-11.486a.629.629,0,0,1-.629.629h-53.6a.628.628,0,0,1-.629-.629v-1.913a.628.628,0,0,1,.629-.629h53.6a.629.629,0,0,1,.629.629Z" transform="translate(-188.306 -109.729)" fill="#003575"/>
      <path id="Caminho_3127" data-name="Caminho 3127" d="M209.363,135.389a1.286,1.286,0,1,0,1.286-1.286A1.287,1.287,0,0,0,209.363,135.389Z" transform="translate(-180.649 -109.217)" fill="#003575"/>
    </g>
  </g>
</svg>
