<svg xmlns="http://www.w3.org/2000/svg" width="60" height="60" viewBox="0 0 60 60">
  <g id="Grupo_13133" data-name="Grupo 13133" transform="translate(-287.5 -319.462)">
    <g id="Grupo_13216" data-name="Grupo 13216">
      <rect id="Retângulo_11145" data-name="Retângulo 11145" width="57.443" height="33.898" transform="translate(288.443 321.306)" fill="#00bf6f"/>
      <rect id="Retângulo_11147" data-name="Retângulo 11147" width="6.733" height="8.494" transform="translate(314.133 354.119)" fill="#00bf6f"/>
      <rect id="Retângulo_11150" data-name="Retângulo 11150" width="6.733" height="8.494" transform="translate(291.162 369.46)" fill="#00bf6f"/>
      <rect id="Retângulo_11151" data-name="Retângulo 11151" width="6.733" height="8.494" transform="translate(321.79 369.46)" fill="#00bf6f"/>
    </g>
    <path id="Caminho_3118" data-name="Caminho 3118" d="M305.546,326.4v18.92l14.943-9.585Z" transform="translate(6.562 2.522)" fill="#fff"/>
    <rect id="Retângulo_11146" data-name="Retângulo 11146" width="6.733" height="8.494" transform="translate(298.898 354.119)" fill="#fff"/>
    <rect id="Retângulo_11148" data-name="Retângulo 11148" width="6.733" height="8.494" transform="translate(329.369 354.119)" fill="#fff"/>
    <rect id="Retângulo_11149" data-name="Retângulo 11149" width="6.733" height="8.494" transform="translate(306.555 369.46)" fill="#fff"/>
    <rect id="Retângulo_11152" data-name="Retângulo 11152" width="6.733" height="8.494" transform="translate(337.026 369.46)" fill="#fff"/>
    <g id="Grupo_13132" data-name="Grupo 13132" transform="translate(287.5 319.462)">
      <path id="Caminho_3119" data-name="Caminho 3119" d="M346.214,319.462H288.786a1.287,1.287,0,0,0-1.286,1.286V355.2a1.287,1.287,0,0,0,1.286,1.286h3.828a1.286,1.286,0,1,0,0-2.572H290.7a.628.628,0,0,1-.629-.629V322.661a.628.628,0,0,1,.629-.627h53.6a.628.628,0,0,1,.629.627V353.29a.628.628,0,0,1-.629.629h-1.915a1.286,1.286,0,0,0,0,2.572h3.829A1.287,1.287,0,0,0,347.5,355.2V320.748A1.287,1.287,0,0,0,346.214,319.462Z" transform="translate(-287.5 -319.462)" fill="#003575"/>
      <path id="Caminho_3120" data-name="Caminho 3120" d="M306.415,346.791a2.083,2.083,0,0,0,1.128-.331l13.744-8.816a2.021,2.021,0,0,0,0-3.419l-13.751-8.819a2.063,2.063,0,0,0-1.122-.329,2.122,2.122,0,0,0-1.009.256,2.034,2.034,0,0,0-1.062,1.784V344.75a2.031,2.031,0,0,0,1.061,1.782A2.123,2.123,0,0,0,306.415,346.791Zm.5-17.58a.628.628,0,0,1,.329-.551.615.615,0,0,1,.3-.078.632.632,0,0,1,.34.1l10.481,6.723a.628.628,0,0,1,0,1.057l-10.481,6.723a.62.62,0,0,1-.34.1.629.629,0,0,1-.629-.627Z" transform="translate(-281.374 -317.42)" fill="#003575"/>
      <path id="Caminho_3121" data-name="Caminho 3121" d="M300.654,343.326a5.12,5.12,0,0,0-5.114,5.115v3.829a.629.629,0,0,1-.629.627H293a1.286,1.286,0,1,0,0,2.572h45.944a1.286,1.286,0,0,0,0-2.572h-1.915a.628.628,0,0,1-.629-.627v-3.829a5.115,5.115,0,1,0-10.23,0v3.829a.627.627,0,0,1-.627.627h-3.829a.629.629,0,0,1-.629-.627v-3.829a5.114,5.114,0,1,0-10.229,0v3.829a.628.628,0,0,1-.629.627H306.4a.628.628,0,0,1-.629-.627v-3.829A5.12,5.12,0,0,0,300.654,343.326Zm2.543,8.944a.628.628,0,0,1-.629.627h-3.828a.628.628,0,0,1-.629-.627v-3.829a2.543,2.543,0,1,1,5.085,0Zm25.544-3.829a2.543,2.543,0,1,1,5.085,0v3.829a.628.628,0,0,1-.629.627h-3.828a.628.628,0,0,1-.629-.627Zm-15.315,0a2.542,2.542,0,1,1,5.085,0v3.829a.627.627,0,0,1-.627.627h-3.829a.629.629,0,0,1-.629-.627Z" transform="translate(-285.969 -310.784)" fill="#003575"/>
      <path id="Caminho_3122" data-name="Caminho 3122" d="M346.214,364.127a.629.629,0,0,1-.629-.629v-3.828a5.114,5.114,0,1,0-10.229,0V363.5a.628.628,0,0,1-.629.629H330.9a.628.628,0,0,1-.629-.629v-3.828a5.115,5.115,0,1,0-10.23,0V363.5a.628.628,0,0,1-.627.629h-3.829a.629.629,0,0,1-.629-.629v-3.828a5.114,5.114,0,1,0-10.229,0V363.5a.628.628,0,0,1-.629.629h-3.828a.628.628,0,0,1-.629-.629v-3.828a5.114,5.114,0,1,0-10.229,0V363.5a.629.629,0,0,1-.629.629,1.287,1.287,0,0,0,0,2.573h57.428a1.287,1.287,0,0,0,0-2.573Zm-49.143-.629a.629.629,0,0,1-.629.629h-3.829a.628.628,0,0,1-.627-.629v-3.828a2.543,2.543,0,0,1,5.085,0Zm15.314,0a.628.628,0,0,1-.629.629h-3.828a.628.628,0,0,1-.629-.629v-3.828a2.543,2.543,0,0,1,5.085,0Zm15.314,0a.628.628,0,0,1-.627.629h-3.829a.629.629,0,0,1-.629-.629v-3.828a2.543,2.543,0,0,1,5.085,0Zm15.315,0a.628.628,0,0,1-.629.629h-3.828a.628.628,0,0,1-.629-.629v-3.828a2.542,2.542,0,0,1,5.085,0Z" transform="translate(-287.5 -306.701)" fill="#003575"/>
    </g>
  </g>
</svg>
