<svg xmlns="http://www.w3.org/2000/svg" xmlns:xlink="http://www.w3.org/1999/xlink" width="400" height="232.788" viewBox="0 0 400 232.788">
  <defs>
    <clipPath id="clip-path">
      <path id="Caminho_3183" data-name="Caminho 3183" d="M1019.661,778.793c-1.439-3.823-3.6-6.951-4.848-10.9-1.687-5.362-2.836-13.007-.9-18.557,2.057-5.893,4.58-10.542,4.734-17.106.131-5.62-1-11.156-2.128-16.63-1.116-5.422-1.621-7-6.93-7.823-1.892-.295-3.76-.807-5.648-1.142a55.95,55.95,0,0,0-9.7-.829v0h-.254v0a55.955,55.955,0,0,0-9.7.829c-1.888.335-3.756.847-5.648,1.142-5.308.827-5.814,2.4-6.93,7.823-1.127,5.474-2.259,11.01-2.128,16.63.153,6.564,2.677,11.213,4.734,17.106,1.937,5.55.788,13.2-.9,18.557-1.244,3.951-3.409,7.079-4.848,10.9a1.541,1.541,0,0,0-.135.936,1.509,1.509,0,0,0,.857.822c7.055,3.686,14.963,4.794,22.7,5.364.679.05,1.34.1,1.993.141v.018l.137-.009.137.009v-.018c.652-.043,1.314-.091,1.993-.141,7.733-.57,15.641-1.678,22.7-5.364a1.51,1.51,0,0,0,.857-.822A1.541,1.541,0,0,0,1019.661,778.793Z" transform="translate(-968.399 -705.801)" fill="#ffcd56"/>
    </clipPath>
  </defs>
  <g id="Grupo_13346" data-name="Grupo 13346" transform="translate(-1145 -3408.975)">
    <g id="Grupo_13328" data-name="Grupo 13328" transform="translate(906.314 3031.198)">
      <g id="Grupo_13155" data-name="Grupo 13155" transform="translate(238.686 462.518)">
        <rect id="Retângulo_11156" data-name="Retângulo 11156" width="108.825" height="44.231" transform="translate(187.938 116.227) rotate(180)" fill="#66a5af"/>
        <path id="Caminho_3148" data-name="Caminho 3148" d="M649.349,969.517h90.06c7.383,0,13.369-6.61,13.369-14.764V891.282c0-8.154-5.985-14.764-13.369-14.764,0,0-24.906,3.191-44.455,3.191s-45.606-3.191-45.606-3.191c-7.383,0-13.369,6.61-13.369,14.764v63.471C635.98,962.907,641.965,969.517,649.349,969.517Z" transform="translate(-618.18 -875.539)" fill="#66bbc4"/>
        <path id="Caminho_3149" data-name="Caminho 3149" d="M660.363,1085.231h58.72c16.29,0,29.428-14.889,29.19-33.081,0,0,.218-51.982.024-64.063-.024,64.063-117.125,64.063-116.294.459-.231,15.866-.83,63.6-.83,63.6C630.935,1070.342,644.073,1085.231,660.363,1085.231Z" transform="translate(-614.192 -968.026)" fill="#66a5af"/>
        <path id="Caminho_3150" data-name="Caminho 3150" d="M803.611,876.518H713.869a129.435,129.435,0,0,0,45.436,8.387A119.321,119.321,0,0,0,803.611,876.518Z" transform="translate(-682.747 -875.539)" fill="#8ed2cc"/>
        <path id="Caminho_3151" data-name="Caminho 3151" d="M1937.229,1571.763h0a3.48,3.48,0,0,0,2.113-4.359l-7.1-29.359-9.6,2.911,10.406,28.356A3.48,3.48,0,0,0,1937.229,1571.763Z" transform="translate(-1684.784 -1423.925)" fill="#94624f"/>
        <path id="Caminho_3152" data-name="Caminho 3152" d="M622.642,1571.763h0a3.481,3.481,0,0,1-2.114-4.359l7.1-29.359,9.6,2.911-10.406,28.356A3.48,3.48,0,0,1,622.642,1571.763Z" transform="translate(-605.251 -1423.925)" fill="#94624f"/>
        <path id="Caminho_3153" data-name="Caminho 3153" d="M1330.459,963.794h90.55c7.424,0,13.441-6.61,13.441-14.764V885.56c0-8.154-6.018-14.764-13.441-14.764,0,0-25.041,3.191-44.7,3.191s-45.854-3.191-45.854-3.191c-7.424,0-13.442,6.61-13.442,14.764v63.471C1317.018,957.184,1323.036,963.794,1330.459,963.794Z" transform="translate(-1182.739 -870.796)" fill="#66bbc4"/>
        <path id="Caminho_3154" data-name="Caminho 3154" d="M1343.969,1079.509h59.038c16.378,0,29.588-14.89,29.349-33.082,0,0,.219-51.982.025-64.063-.025,64.063-117.76,64.063-116.926.458-.232,15.866-.835,63.6-.835,63.6C1314.382,1064.619,1327.591,1079.509,1343.969,1079.509Z" transform="translate(-1180.749 -963.282)" fill="#66a5af"/>
        <path id="Caminho_3155" data-name="Caminho 3155" d="M719.843,1195.22c-23.54-.019-142.819.046-166.36.046-.608,0-10.475-10.29-12.951-15.4-2.686-5.543-4.074-10.612-5.627-16.078-2.586-9.106-5.272-22.111.145-30.747,2.366-3.773,7.155-6.357,11.362-4.892,5.9,2.055,7.8,8.484,8.668,14.061,2.082,13.418,7.957,27.445,22.223,31.267,7.842,2.1,16.3,1.626,24.367,1.631,1.046,0,118.167.134,118.167-.348Q719.841,1184.991,719.843,1195.22Z" transform="translate(-531.905 -1083.79)" fill="#66bbc4"/>
        <path id="Caminho_3156" data-name="Caminho 3156" d="M1614.13,1195.22c23.54-.019,39.787.046,63.327.046.608,0,10.475-10.29,12.951-15.4,2.686-5.543,4.074-10.612,5.626-16.078,2.586-9.106,5.272-22.111-.145-30.747-2.366-3.773-7.155-6.357-11.362-4.892-5.9,2.055-7.8,8.484-8.668,14.061-2.082,13.418-7.957,27.445-22.223,31.267-7.843,2.1-16.3,1.626-24.367,1.631-1.046,0-15.134.134-15.134-.348Q1614.132,1184.991,1614.13,1195.22Z" transform="translate(-1429.035 -1083.79)" fill="#66bbc4"/>
        <g id="Grupo_13152" data-name="Grupo 13152" transform="translate(134.505 62.422)">
          <path id="Caminho_3157" data-name="Caminho 3157" d="M1318.336,1245.341c0,5.287,5.7,20.06,53.34,20.06s53.34-14.772,53.34-20.06-23.881-9.574-53.34-9.574S1318.336,1240.053,1318.336,1245.341Z" transform="translate(-1318.336 -1235.767)" fill="#66bbc4"/>
          <path id="Caminho_3158" data-name="Caminho 3158" d="M1318.336,1245.341c7.911-5.019,98.526-5.088,106.68,0,0-5.288-23.881-9.574-53.34-9.574S1318.336,1240.053,1318.336,1245.341Z" transform="translate(-1318.336 -1235.767)" fill="#8ed2cc"/>
          <path id="Caminho_3159" data-name="Caminho 3159" d="M1318.884,1291.744c0,5.288,5.7,20.059,53.34,20.059s53.34-14.772,53.34-20.059C1419.316,1311.8,1324.489,1311.8,1318.884,1291.744Z" transform="translate(-1318.79 -1282.17)" fill="#66a5af"/>
        </g>
        <g id="Grupo_13153" data-name="Grupo 13153" transform="translate(27.505 62.422)">
          <path id="Caminho_3160" data-name="Caminho 3160" d="M692.725,1245.341c0,5.287,5.7,20.06,53.34,20.06s53.34-14.772,53.34-20.06-23.881-9.574-53.34-9.574S692.725,1240.053,692.725,1245.341Z" transform="translate(-692.725 -1235.767)" fill="#66bbc4"/>
          <path id="Caminho_3161" data-name="Caminho 3161" d="M692.725,1245.341c7.911-5.019,98.526-5.088,106.68,0,0-5.288-23.881-9.574-53.34-9.574S692.725,1240.053,692.725,1245.341Z" transform="translate(-692.725 -1235.767)" fill="#8ed2cc"/>
          <path id="Caminho_3162" data-name="Caminho 3162" d="M693.272,1291.744c0,5.288,5.7,20.059,53.34,20.059s53.34-14.772,53.34-20.059C793.7,1311.8,698.877,1311.8,693.272,1291.744Z" transform="translate(-693.178 -1282.17)" fill="#66a5af"/>
        </g>
        <path id="Caminho_3163" data-name="Caminho 3163" d="M1488,870.8h-90.229a130.743,130.743,0,0,0,45.682,8.387A120.521,120.521,0,0,0,1488,870.8Z" transform="translate(-1249.676 -870.796)" fill="#8ed2cc"/>
        <rect id="Retângulo_11157" data-name="Retângulo 11157" width="226.752" height="5.729" transform="translate(248.422 117.205) rotate(180)" fill="#94624f"/>
        <g id="Grupo_13154" data-name="Grupo 13154" transform="translate(19.671 33.275)">
          <path id="Caminho_3164" data-name="Caminho 3164" d="M646.955,1075.439c.287,1.386,4.358,16.613,4.608,18.641a53.12,53.12,0,0,1-.171,7.27c.027-1.136-.119,2.406,2.112,2.083,1.114-.161,24.983-4.891,33.6-6.142a176.2,176.2,0,0,1,18.252-1.271c1.7-.283,2.308-1.2,2.91-3.811s-3.081-13.253-3.633-16.689.754-5.706.381-7.394c-.494-2.233-2.629-2.959-4.467-2.733-1.051.129-11.86,2.258-20.291,3.3-8.319,1.023-29.622,3.055-30.494,3.162A3.405,3.405,0,0,0,646.955,1075.439Z" transform="translate(-646.916 -1065.353)" fill="#00a09d"/>
          <path id="Caminho_3165" data-name="Caminho 3165" d="M647.841,1106.411c.287,1.386,4.358,16.613,4.608,18.64a53.16,53.16,0,0,1-.171,7.27c.027-1.136-.119,2.406,2.112,2.083,1.114-.161,24.983-4.891,33.6-6.142a176.3,176.3,0,0,1,18.252-1.272c1.7-.283,2.307-1.2,2.91-3.81.273-1.187-.337-4.03-1.137-7.1-18.205,9.014-55.414,19.225-55.259-13.342-1.117.035-1.845.051-2.108.084A3.4,3.4,0,0,0,647.841,1106.411Z" transform="translate(-647.651 -1096.344)" fill="#1d7e8e"/>
          <path id="Caminho_3166" data-name="Caminho 3166" d="M739.026,1068.125c-.495-2.233-2.629-2.959-4.467-2.733-1.051.129-11.86,2.258-20.291,3.3-4.488.552-23.645,2.887-26.327,3C698.494,1084.322,739.4,1069.813,739.026,1068.125Z" transform="translate(-680.924 -1065.353)" fill="#fff" opacity="0.2"/>
        </g>
      </g>
      <g id="Grupo_13158" data-name="Grupo 13158" transform="translate(403.805 501.314)">
        <g id="Grupo_13156" data-name="Grupo 13156" transform="translate(0)">
          <path id="Caminho_3167" data-name="Caminho 3167" d="M1526.731,1203.79c-5.161-.244-10.307.586-15.407,1.412-1.611.261-3.317,1.156-2.1,3.081.666,1.057,2.047,1.366,3.288,1.509,5.329.611,10.8-.065,16.161-.057" transform="translate(-1506.847 -1185.598)" fill="#0b2d4e"/>
          <path id="Caminho_3168" data-name="Caminho 3168" d="M1589.19,1120.581c.784,4.786-1.463,11.7-6.688,13.1-2.106.564-4.643.364-6.818.351q-3.971-.023-7.942-.057l-15.6-.112c-3.427-.025-7.071-.112-9.931-2-3.4-2.244-5.092-6.393-2.832-9.964,1.941-3.068,5.573-4.947,9.036-5.694,5.8-1.25,11.829.407,17.6-.633a16.878,16.878,0,0,0,2.773-.738c5.208-1.889,10.382-4.49,15.7-1.408A10.173,10.173,0,0,1,1589.19,1120.581Z" transform="translate(-1531.335 -1109.544)" fill="#061f33"/>
          <path id="Caminho_3169" data-name="Caminho 3169" d="M1512.116,1098.362c-.868-.918-1.4-1.1-1.926.208a12.579,12.579,0,0,0-1,4.78,14.3,14.3,0,0,0-5.972,2.844,12.557,12.557,0,0,0-4.517-1.908c-1.374-.31-1.528.232-1.265,1.467a39.307,39.307,0,0,0,1.348,4.472c.315.924.6,1.855.922,2.775a6.611,6.611,0,0,0,1.228,2.547c1.518,1.887,4.539,2.985,6.882,3.295a7.585,7.585,0,0,0,6.947-2.341,13.929,13.929,0,0,0,3.112-6.641,8.019,8.019,0,0,0-.348-4.09,15.086,15.086,0,0,0-2.5-3.75A40.6,40.6,0,0,0,1512.116,1098.362Z" transform="translate(-1497.334 -1097.631)" fill="#0b2d4e"/>
          <path id="Caminho_3170" data-name="Caminho 3170" d="M1633.931,1139.922c4.99,4.751,4.468,10.228,1.71,15.072-3.058,5.371-8.094,9.009-13.71,11.376-6.632,2.794-14.223,4.224-21.327,2.549-1.428-.337-2.989-1.038-3.41-2.443-1.244-4.159,5.242-4.085,7.556-4.282,4.754-.4,9.792-.454,14.415-2,5.074-1.7,8.687-5.316,11.225-9.948" transform="translate(-1579.985 -1132.689)" fill="#0b2d4e"/>
          <path id="Caminho_3171" data-name="Caminho 3171" d="M1695.2,1136.531a10.18,10.18,0,0,0-2.168-6.208c-3.532-4.441-10.4-4.58-15.138-2.172-5.429,2.762-6.288,10.074-4.163,15.228.1.236-1.9.167-2.069.179-1.435.1-4.406-.173-4.979,1.586a2.691,2.691,0,0,0,1.586,3.153,4.989,4.989,0,0,0,1.544.16c3.719-.005,7.436.007,11.155.013,2.912,0,5.11-.533,6.855-3.016.908-1.293,1.595-2.736,2.562-3.985" transform="translate(-1637.639 -1121.641)" fill="#0b2d4e"/>
          <ellipse id="Elipse_74" data-name="Elipse 74" cx="1.226" cy="1.055" rx="1.226" ry="1.055" transform="translate(11.574 16.429) rotate(-21.161)" fill="#061f33"/>
        </g>
        <g id="Grupo_13157" data-name="Grupo 13157" transform="translate(13.768 6.569)">
          <path id="Caminho_3172" data-name="Caminho 3172" d="M1583.543,1136.039a9.777,9.777,0,0,0,.608.92,2.97,2.97,0,0,1,.28.5,3.536,3.536,0,0,1,.174.549c.087.368.138.739.19,1.1s.093.742.111,1.115a10.72,10.72,0,0,1-.129,2.255,11.124,11.124,0,0,1-1.611,4.205,10.311,10.311,0,0,1-1.415,1.761,9.439,9.439,0,0,1-1.764,1.4,4.408,4.408,0,0,1-1.038.454,2.424,2.424,0,0,1-1.115.06,3.343,3.343,0,0,0,1.966-.793,9.1,9.1,0,0,0,.816-.7c.128-.127.26-.249.381-.381s.246-.261.363-.4a11.6,11.6,0,0,0,1.254-1.737,12,12,0,0,0,.933-1.924,12.406,12.406,0,0,0,.827-4.187c.01-.362-.008-.711-.024-1.084s-.03-.729-.074-1.084a3.284,3.284,0,0,0-.093-.519,3.38,3.38,0,0,0-.2-.495A6.78,6.78,0,0,1,1583.543,1136.039Z" transform="translate(-1577.833 -1136.039)" fill="#73b8d4"/>
        </g>
      </g>
      <g id="Grupo_13164" data-name="Grupo 13164" transform="translate(287.225 379.802)">
        <g id="Grupo_13163" data-name="Grupo 13163" transform="translate(0 0)">
          <path id="Caminho_3173" data-name="Caminho 3173" d="M1013.349,472.758a17.629,17.629,0,0,1-16.336-1.785c-4.612-3.28-8.841-5.692-14.7-5.866-3.64-.108-7.051,1.414-10.519,2.283-3.049.764-5.378,3.213-8.664,3.663a10.792,10.792,0,0,1-10.7-5.967,13.54,13.54,0,0,1,.655-12.54c1.586-2.759,3.045-4.818,1.262-7.894a13.332,13.332,0,0,1-1.142-2.018,5.627,5.627,0,0,1-.26-2.163c.161-3.985,3.179-6.973,5.191-10.264a6.957,6.957,0,0,0,1.085-2.458c.361-2.266-1.439-4.225-2.4-6.309-3.11-6.753,2.2-14.433,7.362-18.485,3.047-2.391,6.7-3.355,9.986-5.3,1.5-.887,2.861-1.986,4.376-2.842,2.641-1.493,5.518-1.556,8.451-1.145,8.352,1.171,17.848,7.243,19.784,15.981,1.312,5.923-.836,12.809,5.032,16.956,1.767,1.249,4,1.992,5.205,3.789,2.562,3.82-1.2,9.479,1.14,13.437a13.359,13.359,0,0,0,2.014,2.316,19.091,19.091,0,0,1,5.158,14.871,9.556,9.556,0,0,1-1.054,3.79,12.515,12.515,0,0,1-3.88,3.751,35.889,35.889,0,0,1-6.974,4.172Z" transform="translate(-928.016 -392.374)" fill="#0b2d4e"/>
          <path id="Caminho_3174" data-name="Caminho 3174" d="M1021.3,445.432c-2.594-2.228-3.15-6.125-2.4-9.461.491-2.183,1.46-4.307,1.374-6.543a7.225,7.225,0,0,0-4.7-6.372,40.784,40.784,0,0,1-4.121-1.153c-1.952-.93-3.025-2.894-3.738-4.841-.776-2.121-.454-3.931-.463-6.152-.012-2.839-.084-5.682-.372-8.508a15.922,15.922,0,0,0-4.519-8.829q-.481-.5-1-.969c-5.805-5.182-16.9-7.452-23.781-3.237a17.64,17.64,0,0,0-3.31,3.112,21,21,0,0,1-3.871,2.882,95.19,95.19,0,0,1-8.455,4.443,15.63,15.63,0,0,0-5.012,3.407,9.938,9.938,0,0,0-2.255,6.819,16.535,16.535,0,0,0,2,7.012,28.9,28.9,0,0,1,2.259,4.668c.822,2.7-.75,5.237-2.742,6.969-1.51,1.312-3.245,2.513-4.072,4.335a5.507,5.507,0,0,0,.163,4.81c.735,1.365,2.03,2.373,2.716,3.763a5.082,5.082,0,0,1,.053,4.319c-.8,1.72-2.612,3.317-2.015,5.116" transform="translate(-928.396 -387.17)" fill="none" stroke="#0b2d4e" stroke-miterlimit="10" stroke-width="4"/>
          <path id="Caminho_3175" data-name="Caminho 3175" d="M999.206,1117.632a24.474,24.474,0,0,1-2.506,5.023,49.025,49.025,0,0,1-16.61,16.151c-5.2,2.992-10.652,2.859-15.971,1.7-3.636-.794-7.253-3.293-10.76-5.612a52.718,52.718,0,0,1-10.528-9c-2.649-2.976-5.023-6.67-5.427-13.7-.159-2.766.115-5.829,1.07-7.7,1.15-2.26,2.891-2.184,4.442-1.917,8.787,1.509,17.3,8.073,26.145,8.194,4.938.068,9.542-2.78,14.287-5.355,3.66-1.986,7.724-4.171,11.536-3.755C998.338,1102.026,1001.755,1110.5,999.206,1117.632Z" transform="translate(-916.553 -979.408)" fill="#0b2d4e"/>
          <path id="Caminho_3176" data-name="Caminho 3176" d="M870.28,975.991c-.214-.484-.431-.979-.658-1.489a73.447,73.447,0,0,1-5.174-16.641c-.381-2.064-.768-4.323-2.345-5.708-2.183-1.916-6.435-1.671-9.138-1.309a4.87,4.87,0,0,0-3.346,1.626c-1.264,1.692-1.138,5.511-1.188,7.549-.3,12.391,9.493,22.634,17.47,31,1.536,1.61,3.2,3.238,5.331,3.889s4.829-.026,5.76-2.046c.683-1.483.264-3.225-.276-4.766a31.232,31.232,0,0,0-3.922-7.381A27.379,27.379,0,0,1,870.28,975.991Z" transform="translate(-842.827 -854.23)" fill="#f8a17a"/>
          <path id="Caminho_3177" data-name="Caminho 3177" d="M1055.736,593.185a10.888,10.888,0,0,1-.869,6.353c-2.556,5.32-8.887,6.357-14.225,6.565a31.779,31.779,0,0,1-5.919-.313,38.848,38.848,0,0,0-5.058-.035,19.365,19.365,0,0,1-9.886-2.975,9.189,9.189,0,0,1-3.512-3.584c-1.009-2.1-.716-4.582-.182-6.85a13.827,13.827,0,0,1,1.368-3.781c.72-1.247,1.752-2.306,2.352-3.614,1.127-2.459.2-5.334,1.2-7.747a14.161,14.161,0,0,1,4.395-5.2,12.01,12.01,0,0,1,7.842-1.928,33.3,33.3,0,0,1,8,1.867c2.055.672,3.823.256,5.331,1.954,1.2,1.346.778,3.543,1.16,5.174C1049.024,584.551,1054.871,587.445,1055.736,593.185Z" transform="translate(-981.41 -538.759)" fill="#061f33"/>
          <path id="Caminho_3178" data-name="Caminho 3178" d="M874.371,745.156c-3.488,5.979-7.414,11.717-11.167,17.532-2.1,3.247-4.217,6.549-5.341,10.247-5.174-.127-10.362-1.221-15.443-2.193.817-6.863,4.439-13.084,7.679-19.065,3.376-6.232,7.012-12.323,10.189-18.661,2.583-5.154,7.409-11.3,13.861-8.206,4.965,2.384,4.193,9.215,3.168,13.621A24.737,24.737,0,0,1,874.371,745.156Z" transform="translate(-837.851 -666.37)" fill="#fbae3e"/>
          <path id="Caminho_3179" data-name="Caminho 3179" d="M1223.516,975.991c.214-.484.43-.979.658-1.489a73.453,73.453,0,0,0,5.174-16.641c.381-2.064.767-4.323,2.345-5.708,2.183-1.916,6.435-1.671,9.138-1.309a4.869,4.869,0,0,1,3.346,1.626c1.264,1.692,1.138,5.511,1.188,7.549.3,12.391-9.493,22.634-17.47,31-1.536,1.61-3.2,3.238-5.331,3.889s-4.829-.026-5.76-2.046c-.683-1.483-.264-3.225.276-4.766A31.23,31.23,0,0,1,1221,980.71,27.385,27.385,0,0,0,1223.516,975.991Z" transform="translate(-1147.91 -854.23)" fill="#f8a17a"/>
          <path id="Caminho_3180" data-name="Caminho 3180" d="M1186.788,745.156c3.488,5.979,7.415,11.717,11.167,17.532,2.1,3.247,4.217,6.549,5.341,10.247,5.173-.127,10.362-1.221,15.443-2.193-.817-6.863-4.439-13.084-7.679-19.065-3.376-6.232-7.012-12.323-10.189-18.661-2.583-5.154-7.408-11.3-13.86-8.206-4.965,2.384-4.193,9.215-3.168,13.621A24.728,24.728,0,0,0,1186.788,745.156Z" transform="translate(-1120.251 -666.37)" fill="#fbae3e"/>
          <g id="Grupo_13160" data-name="Grupo 13160" transform="translate(26.116 54.496)">
            <path id="Caminho_3181" data-name="Caminho 3181" d="M1019.661,778.793c-1.439-3.823-3.6-6.951-4.848-10.9-1.687-5.362-2.836-13.007-.9-18.557,2.057-5.893,4.58-10.542,4.734-17.106.131-5.62-1-11.156-2.128-16.63-1.116-5.422-1.621-7-6.93-7.823-1.892-.295-3.76-.807-5.648-1.142a55.95,55.95,0,0,0-9.7-.829v0h-.254v0a55.955,55.955,0,0,0-9.7.829c-1.888.335-3.756.847-5.648,1.142-5.308.827-5.814,2.4-6.93,7.823-1.127,5.474-2.259,11.01-2.128,16.63.153,6.564,2.677,11.213,4.734,17.106,1.937,5.55.788,13.2-.9,18.557-1.244,3.951-3.409,7.079-4.848,10.9a1.541,1.541,0,0,0-.135.936,1.509,1.509,0,0,0,.857.822c7.055,3.686,14.963,4.794,22.7,5.364.679.05,1.34.1,1.993.141v.018l.137-.009.137.009v-.018c.652-.043,1.314-.091,1.993-.141,7.733-.57,15.641-1.678,22.7-5.364a1.51,1.51,0,0,0,.857-.822A1.541,1.541,0,0,0,1019.661,778.793Z" transform="translate(-968.399 -705.801)" fill="#ffcd56"/>
            <g id="Grupo_13159" data-name="Grupo 13159" clip-path="url(#clip-path)">
              <path id="Caminho_3182" data-name="Caminho 3182" d="M1057.721,700.53c.328-1.009,1.562-3.257.939-4.138s-2.949-.7-3.856-.665l-29.939,1.006c.577,2.14.6,4.135,1.422,6.251a20.092,20.092,0,0,0,2.8,5.032,15.866,15.866,0,0,0,9.486,5.932,16.224,16.224,0,0,0,16.786-7.56A30.844,30.844,0,0,0,1057.721,700.53Z" transform="translate(-1015.207 -697.419)" fill="#ffcd56"/>
            </g>
          </g>
          <path id="Caminho_3184" data-name="Caminho 3184" d="M1065.986,642.144c3.126,3.555,9.136,3.837,13.342,2.383a6.813,6.813,0,0,0,4.947-6.351c.067-3.47-2.976-5.935-3.745-9.168a21.748,21.748,0,0,1-.348-5.587c.053-2.177.068-4.36.173-6.533a23.108,23.108,0,0,0-6.19-.589c-1.894.078-3.785-.12-5.677-.009a.668.668,0,0,0-.425.126.609.609,0,0,0-.141.408c-.254,2.939,0,5.916-.2,8.861a14.836,14.836,0,0,1-2.374,7.672A7.158,7.158,0,0,0,1065.986,642.144Z" transform="translate(-1021.638 -577.074)" fill="#f8a17a"/>
          <g id="Grupo_13162" data-name="Grupo 13162" transform="translate(50.1 6.997)">
            <g id="Grupo_13161" data-name="Grupo 13161">
              <path id="Caminho_3185" data-name="Caminho 3185" d="M1108.632,429.379a12.25,12.25,0,0,1,5.121-1.286,19.825,19.825,0,0,1,5.29.546,18.948,18.948,0,0,1,9.264,5.076,16.687,16.687,0,0,1,4.809,9.413,45.784,45.784,0,0,1,.193,5.33,12.588,12.588,0,0,0,.9,5.087,10.361,10.361,0,0,0,3.419,3.825c1.418,1.025,2.987,1.845,4.5,2.781a6.8,6.8,0,0,1,2.1,1.74,4.654,4.654,0,0,1,.687,2.656,9.806,9.806,0,0,1-.342,2.684,18.553,18.553,0,0,1-.977,2.493,5.036,5.036,0,0,0-.475,2.495,7.607,7.607,0,0,0,.732,2.478c.75,1.588,1.674,3.107,2.436,4.714a14.58,14.58,0,0,1,1.483,5.1,12.568,12.568,0,0,1-.651,5.243,12.5,12.5,0,0,0,.53-5.231,14.392,14.392,0,0,0-1.582-5.005c-.78-1.581-1.717-3.083-2.5-4.686a7.921,7.921,0,0,1-.795-2.58,5.407,5.407,0,0,1,.468-2.672,18.293,18.293,0,0,0,.929-2.457,9.5,9.5,0,0,0,.314-2.569,4.234,4.234,0,0,0-.619-2.408,6.414,6.414,0,0,0-1.974-1.606c-1.5-.919-3.082-1.736-4.542-2.78a10.818,10.818,0,0,1-3.592-4,13.03,13.03,0,0,1-.926-5.293,45.616,45.616,0,0,0-.166-5.275,16.529,16.529,0,0,0-4.632-9.206,18.675,18.675,0,0,0-9.047-5.109,19.637,19.637,0,0,0-5.229-.661A12.184,12.184,0,0,0,1108.632,429.379Z" transform="translate(-1108.632 -428.078)" fill="#73b8d4"/>
            </g>
          </g>
          <path id="Caminho_3186" data-name="Caminho 3186" d="M1096.085,628.454a23.5,23.5,0,0,1-.263-5.176c.053-2.177.068-4.36.173-6.533a23.113,23.113,0,0,0-6.19-.589c-1.893.078-3.785-.12-5.677-.008a.668.668,0,0,0-.425.126.61.61,0,0,0-.141.408c-.254,2.939,0,5.916-.2,8.861a21.619,21.619,0,0,1-.318,2.519c.3.26.6.51.911.74a9.7,9.7,0,0,0,8.284,1.509A12.513,12.513,0,0,0,1096.085,628.454Z" transform="translate(-1037.318 -576.956)" fill="#e5785c"/>
          <path id="Caminho_3187" data-name="Caminho 3187" d="M1066.781,469.715a26.4,26.4,0,0,0-1.27-7.872c-3.341-9.753-15.6-12-22.859-4.859-8.1,7.961-4.686,26.671,4.055,33.134a9.7,9.7,0,0,0,8.284,1.509C1063.453,489.227,1066.964,478.721,1066.781,469.715Z" transform="translate(-1000.033 -441.576)" fill="#f8a17a"/>
          <path id="Caminho_3188" data-name="Caminho 3188" d="M1064.63,453.889c-2.631-9.968-14.7-13.089-22.45-6.49a16.246,16.246,0,0,0-2.977,3.651,39.9,39.9,0,0,0-2.45,3.253,11.272,11.272,0,0,0-1.242,4.156c-.137,1.41.324,2.642.359,4a4.942,4.942,0,0,1,1.634-3.771,15.675,15.675,0,0,1,2.817-1.7,4.625,4.625,0,0,0,2.253-2.309c3.085,4.044,7.872,5.282,12.582,6.449,3.952.979,8.289,3.47,8.378,8.085a3.942,3.942,0,0,0,.3,1.512,6.717,6.717,0,0,0,.463-1.943c.085-.752.3-1.5.451-2.254a33.42,33.42,0,0,0,.579-4.692A26.4,26.4,0,0,0,1064.63,453.889Z" transform="translate(-997.896 -434.211)" fill="#e5785c"/>
          <path id="Caminho_3189" data-name="Caminho 3189" d="M1046.143,462.624a5.327,5.327,0,0,0,1.717-2.39c1.054-3.1.94-6.525.812-9.843a23.146,23.146,0,0,0-.654-5.491,13.937,13.937,0,0,0-2.838-5.1,16.71,16.71,0,0,0-14.039-5.936c-2.06.176-3.575,1.163-5.384,2a53.728,53.728,0,0,1-5.7,1.88,17.051,17.051,0,0,0-6.051,2.933,11.038,11.038,0,0,0-2.8,4.034,11.423,11.423,0,0,0-.63,5.786,15.153,15.153,0,0,0,1.1,4.8,7.484,7.484,0,0,0,3.469,3.009,13.126,13.126,0,0,1-.031-2.767,18.676,18.676,0,0,1,.72-6.083,8.322,8.322,0,0,1,3.426-4.238,11.724,11.724,0,0,0,1.8-1.533c.266-.294,1.424-1.647,1.235-2.065a13.826,13.826,0,0,0,4.076,5.33,46.381,46.381,0,0,0,10.874,5.7c.279.109.56.217.84.329a9.4,9.4,0,0,1,2.922,1.672c1.91,1.738,2.048,4.409,1.977,6.817a2.24,2.24,0,0,0,.072.784C1043.467,463.437,1045.378,463.208,1046.143,462.624Z" transform="translate(-977.163 -425.835)" fill="#0b2d4e"/>
          <path id="Caminho_3190" data-name="Caminho 3190" d="M907.513,940.655l-.608,1.441h72.49l-.727-1.62Z" transform="translate(-891.307 -845.844)" fill="#b8d1ce"/>
          <path id="Caminho_3191" data-name="Caminho 3191" d="M976.764,984.652H914.251l-4.479-46.54a1.411,1.411,0,0,1,1.391-1.557h68.689a1.411,1.411,0,0,1,1.391,1.557Z" transform="translate(-893.678 -842.592)" fill="#b8d1ce"/>
          <path id="Caminho_3192" data-name="Caminho 3192" d="M974.536,992.346H911.042l-4.549-46.54a1.419,1.419,0,0,1,1.413-1.558h69.767a1.419,1.419,0,0,1,1.413,1.558Z" transform="translate(-890.959 -848.97)" fill="#fff"/>
          <rect id="Retângulo_11158" data-name="Retângulo 11158" width="63.457" height="2.824" transform="translate(20.082 143.376)" fill="#b8d1ce"/>
          <circle id="Elipse_75" data-name="Elipse 75" cx="4.402" cy="4.402" r="4.402" transform="translate(46.721 122.886) rotate(-79.862)" fill="#b8d1ce"/>
          <path id="Caminho_3193" data-name="Caminho 3193" d="M1060.082,1179.374c2.9-.521,5.8-1.093,8.664-1.571,14.394-2.4,29.4-5.213,42.477-11.958,3.013-1.56,6.147-4.015,7.711-7.078,4.1-8.056-4.087-15.615-12.089-13.329-13.363,3.818-24.97,12.1-37.78,17.489-2.138.9-4.291,1.841-6.456,2.787-1.859.812-3.727,1.628-5.6,2.425" transform="translate(-1015.737 -1015.407)" fill="#0b2d4e"/>
          <path id="Caminho_3194" data-name="Caminho 3194" d="M964.915,1280.181c-2.143.911-4.3,1.8-6.453,2.625-2.206.846-14.981,3.665-12.137,8.485.559.946,1.794,1.195,2.885,1.332,6.269.788,12.556-.092,18.778-1.208" transform="translate(-923.644 -1127.448)" fill="#f8a17a"/>
          <path id="Caminho_3195" data-name="Caminho 3195" d="M860.947,1288.231c-2.763.313-5.653.217-8.217.366-1.156.067-2.313.134-3.471.125a52.236,52.236,0,0,1-5.5-.434l-3.983-.456a3.42,3.42,0,0,1-3.509-2.723,50.367,50.367,0,0,1-2.023-4.783c-.329-1.084-.682-2.151.049-3.157a5.258,5.258,0,0,1,1.363-1.207,9.684,9.684,0,0,1,2.06-1.109c2.414-.885,4.658.061,6.915.93a54.4,54.4,0,0,0,7.266,2.487,50.8,50.8,0,0,0,8.21.912c2.194.139,5.6-.034,7.407,1.445a4.953,4.953,0,0,1,1.812,2.974c-.02,1.246-1.547,2.371-2.5,2.914A15.226,15.226,0,0,1,860.947,1288.231Z" transform="translate(-830.759 -1122.736)" fill="#f8a17a"/>
          <path id="Caminho_3196" data-name="Caminho 3196" d="M1055.952,1571.684c1.467,2.362,3.335,4.57,4.808,6.674.664.948,1.329,1.9,2.055,2.8a52.164,52.164,0,0,0,3.75,4.044l2.828,2.842a3.42,3.42,0,0,0,4.312,1.064c3.128-.87,6.1-.94,6.176-4.921.05-2.525-.9-5.381-3.022-6.811-2.462-1.656-5.151-2.9-7.48-4.772a50.792,50.792,0,0,1-5.807-5.875c-1.47-1.635-3.448-4.418-5.726-4.915a4.955,4.955,0,0,0-3.457.423c-.965.788-.9,2.684-.738,3.766A15.22,15.22,0,0,0,1055.952,1571.684Z" transform="translate(-1012.875 -1360.813)" fill="#f8a17a"/>
          <path id="Caminho_3197" data-name="Caminho 3197" d="M836.137,1286.441c-2.341-.5-5.284-1.344-6.7-3.274a7.069,7.069,0,0,1-1.128-5.13c.216-1.777,1.767-3.023,3.448-3.639a13.806,13.806,0,0,0-11.7-2.1,6.655,6.655,0,0,0-1.266.467c-5.424,2.647-2.821,9.345,1.075,12.054a12.348,12.348,0,0,0,6.025,2.145c1.736.141,2.911.08,4.65.073C832.644,1287.025,833.738,1286.648,836.137,1286.441Z" transform="translate(-815.704 -1120.507)" fill="#0098d7"/>
          <path id="Caminho_3198" data-name="Caminho 3198" d="M1099.79,1645.758c1.847,1.524,4.33,3.312,6.723,3.226a7.068,7.068,0,0,0,4.724-2.3c1.26-1.272,1.276-3.261.717-4.962a13.806,13.806,0,0,1,8.905,7.876,6.649,6.649,0,0,1,.418,1.282c1.287,5.9-5.582,8.008-10.123,6.631a12.352,12.352,0,0,1-5.419-3.4c-1.188-1.275-1.868-2.234-2.941-3.6C1101.5,1648.86,1101.115,1647.768,1099.79,1645.758Z" transform="translate(-1051.202 -1427.156)" fill="#0098d7"/>
          <path id="Caminho_3199" data-name="Caminho 3199" d="M929.2,1228.348c1.105,4.206,2.222,8.454,3.512,12.589.026.082.054.164.082.245.6,1.713,1.341,3.375,1.922,5.1a29.945,29.945,0,0,1,.942,3.339,15.674,15.674,0,0,1,.263,1.611,2.372,2.372,0,0,1,.046.761,1.169,1.169,0,0,1-.647.616,2.381,2.381,0,0,1-.828.17,8.615,8.615,0,0,1-3.308-.642q-.988-.35-1.95-.767a11.4,11.4,0,0,1-1.812-.866,3.2,3.2,0,0,1-.623-.745q-.309-.408-.609-.822-.6-.828-1.171-1.678c-1.737-2.588-3.273-5.3-4.749-8.046-1.464-2.722-2.868-5.475-4.36-8.181-7.045-12.779-14.143-26.3-16.959-40.739-.644-3.331-.662-7.312.771-10.439,3.776-8.214,14.785-6.476,17.953,1.218,5.291,12.852,5.994,27.091,9.707,40.484C928,1223.79,928.6,1226.062,929.2,1228.348Z" transform="translate(-884.367 -1039.795)" fill="#f8a17a"/>
          <path id="Caminho_3200" data-name="Caminho 3200" d="M920.08,1238.829c-1.393-2.6-2.736-5.224-4.14-7.771-7.045-12.779-14.143-26.3-16.959-40.739-.644-3.331-.663-7.312.771-10.439,3.776-8.214,14.785-6.476,17.953,1.219,5.291,12.851,5.994,27.091,9.707,40.484.62,2.236,1.217,4.508,1.817,6.794.516,1.963,1.034,3.934,1.571,5.9" transform="translate(-884.39 -1039.818)" fill="#0b2d4e"/>
        </g>
      </g>
    </g>
    <path id="Polígono_20" data-name="Polígono 20" d="M35,0,70,60H0Z" transform="translate(1545 3471) rotate(-180)" fill="#dbdbdb"/>
  </g>
</svg>
